<?xml version="1.0" encoding="utf-8" ?>
<svg baseProfile="full" height="200mm" version="1.1" viewBox="0,0,200,200" width="200mm" xmlns="http://www.w3.org/2000/svg" xmlns:ev="http://www.w3.org/2001/xml-events" xmlns:xlink="http://www.w3.org/1999/xlink"><defs /><rect fill="#1a1a1a" height="200" width="200" x="0" y="0" /><text alignment-baseline="middle" fill="#e1ed5e" style="dominant-baseline: central; font-size:9.0px; font-family:Arial;" text-anchor="middle" x="100.0" y="100.0">2021</text><line stroke="#e1ed5e" stroke-width="0.3" x1="100.0" x2="100.0" y1="15.0" y2="10.0" /><path d="M 100.0 14.0 a86.0,86.0 0 0,1 42.46469731375804,11.215312516191453" fill="none" id="id37" stroke="none" /><text fill="#e1ed5e" style="font-size:6.75px; font-family:Arial;" text-anchor="middle"><textPath startOffset="22.20632615414155" xlink:href="#id37">January</textPath></text><line stroke="#e1ed5e" stroke-width="0.3" x1="143.23703022742887" x2="145.7803849466894" y1="26.81831364943548" y2="22.513508569990506" /><path d="M 143.74570117128098 25.957352633546492 a86.0,86.0 0 0,1 28.547481713284135,27.462654790039103" fill="none" id="id38" stroke="none" /><text fill="#e1ed5e" style="font-size:6.75px; font-family:Arial;" text-anchor="middle"><textPath startOffset="19.985693538727396" xlink:href="#id38">February</textPath></text><line stroke="#e1ed5e" stroke-width="0.3" x1="172.23445277983987" x2="176.4835382374775" y1="55.19839476539836" y2="52.563006222186495" /><path d="M 173.08426987136738 54.67131705675599 a86.0,86.0 0 0,1 12.851231095245387,41.99856678651699" fill="none" id="id39" stroke="none" /><text fill="#e1ed5e" style="font-size:6.75px; font-family:Arial;" text-anchor="middle"><textPath startOffset="22.20632615414155" xlink:href="#id39">March</textPath></text><path d="M 119.34039704204932 91.81776055985345 l 29.263821550347842 -12.380490138753373 a52.77495535490762,52.77495535490762 0 0,0 0.3467523483107808,0.8396883155841076 l -29.472595585544823 11.874927252715963" fill="red" stroke="none" /><path d="M 119.61058180528143 92.48833698450437 l 40.9280111515703 -15.677119155243318 a64.82777842682378,64.82777842682378 0 0,0 0.3901873205135168,1.0455080300454354 l -41.19180306058545 14.970287988168549" fill="red" stroke="none" /><path d="M 120.53481517161879 95.60439243477599 l 50.30904623875424 -10.768970764923633 a72.44872073034365,72.44872073034365 0 0,0 0.25053700521406264,1.221707413830151 l -50.4869625398833 9.90138769493007" fill="red" stroke="none" /><path d="M 120.87857604477298 97.74499172005257 l 44.56328679069184 -4.813095513754642 a65.82245439524675,65.82245439524675 0 0,0 0.11196986979279211,1.12752130833627 l -44.63953378616686 4.045298674713937" fill="red" stroke="none" /><path d="M 120.91429891909075 98.10471618934814 l 55.93109804562022 -5.06855644781301 a77.16028839895188,77.16028839895188 0 0,0 0.10848558779122407,1.3237989549703435 l -56.01005811723094 4.105043575634897" fill="red" stroke="none" /><line stroke="#e1ed5e" stroke-width="0.3" x1="184.98032266829074" x2="189.97916517819016" y1="98.17113171792111" y2="98.06355123074" /><path d="M 185.9800911702706 98.14961562048488 a86.0,86.0 0 0,1 -9.607161424134198,41.387399972396054" fill="none" id="id40" stroke="none" /><text fill="#e1ed5e" style="font-size:6.75px; font-family:Arial;" text-anchor="middle"><textPath startOffset="21.466115282336823" xlink:href="#id40">April</textPath></text><path d="M 120.81339534386255 102.79330883721812 l 62.44018603158764 8.379926511654341 a84.0,84.0 0 0,0 -0.20466379593359463,1.4314181120783627 l -62.28668818463745 -9.453490095713112" fill="red" stroke="none" /><path d="M 120.76222939487914 103.15116336523771 l 56.14087146237871 8.520715867266162 a77.78380092461238,77.78380092461238 0 0,0 -0.21230623848140823,1.3220311496858594 l -55.98588346953602 -9.485826246645226" fill="red" stroke="none" /><path d="M 120.64145759157962 103.86396538481128 l 47.65893696504011 8.921486377247897 a69.48677336982826,69.48677336982826 0 0,0 -0.23019997526875188,1.1737847144422502 l -47.498307056795696 -9.740534818758091" fill="red" stroke="none" /><path d="M 120.32669344350535 105.2749913415812 l 58.53546272693277 15.190569972347236 a81.47440626199577,81.47440626199577 0 0,0 -0.3639652752547321,1.354450187628648 l -58.26530937533626 -16.195911093151434" fill="red" stroke="none" /><path d="M 120.23288151984713 105.62410040840565 l 59.441455149217255 16.522842376801766 a82.69514495051489,82.69514495051489 0 0,0 -0.3930278266586992,1.3681814250057815 l -59.148234685672456 -17.54358127731213" fill="red" stroke="none" /><path d="M 120.02730092923936 106.31721596034902 l 45.21509886344437 14.2622086320125 a68.4111354039755,68.4111354039755 0 0,0 -0.3639073305428969,1.1199916002692751 l -44.96289928188522 -15.03839913225957" fill="red" stroke="none" /><path d="M 119.26925614724726 108.34839909993367 l 28.113232715655233 12.180049136620687 a51.638333027354506,51.638333027354506 0 0,0 -0.36038371784639817,0.8125701452206611 l -27.89940791307756 -12.662167618334037" fill="red" stroke="none" /><line stroke="#e1ed5e" stroke-width="0.3" x1="174.80103733775053" x2="179.2010983576182" y1="140.37084112569926" y2="142.7455964860345" /><path d="M 175.68104954172406 140.8457921977663 a86.0,86.0 0 0,1 -30.038265399797805,32.042727171017184" fill="none" id="id41" stroke="none" /><text fill="#e1ed5e" style="font-size:6.75px; font-family:Arial;" text-anchor="middle"><textPath startOffset="22.206326154141568" xlink:href="#id41">May</textPath></text><path d="M 117.55443506779139 111.5257021239791 l 44.85042872503256 29.44741198570049 a74.653620842165,74.653620842165 0 0,0 -0.7145307599581255,1.0681265373307898 l -44.33689485966371 -30.21507543723709" fill="red" stroke="none" /><path d="M 117.35343817320211 111.8261652097733 l 47.19635870271367 32.16376661196365 a78.11395764140394,78.11395764140394 0 0,0 -0.766778112674968,1.1046010603222824 l -46.63571968287656 -32.971408934472954" fill="red" stroke="none" /><path d="M 116.93607887273984 112.41649034213515 l 50.143422667109085 36.76207036741546 a83.17565966253318,83.17565966253318 0 0,0 -0.856466632725062,1.1473770163120218 l -49.50319476768893 -37.6197602632368" fill="red" stroke="none" /><path d="M 116.27256486870786 113.27417163493432 l 27.05802423134275 22.07229534169779 a55.91880434601198,55.91880434601198 0 0,0 -0.6148512192697371,0.7406279021190858 l -26.674077012179467 -22.534784500930645" fill="red" stroke="none" /><path d="M 116.0416608686014 113.55231037782055 l 35.96703308055998 30.385656427331362 a68.08413305072017,68.08413305072017 0 0,0 -0.7640255206086626,0.8887342882350429 l -35.438665050380536 -31.000267814727934" fill="red" stroke="none" /><path d="M 115.32070863581623 114.36230785411682 l 40.88701492052213 38.32929073212682 a77.04357694811156,77.04357694811156 0 0,0 -0.9153270336611652,0.9597167353644757 l -40.221181335481994 -39.0274145840738" fill="red" stroke="none" /><path d="M 114.81725581225074 114.88116024355365 l 40.940406466107014 41.11697582724092 a79.02346579434885,79.02346579434885 0 0,0 -0.9721769595904677,0.9514797710858457 l -40.226579554140756 -41.81560570124934" fill="red" stroke="none" /><path d="M 111.7513745106137 117.40417183066458 l 29.660958014647644 43.928853555199645 a74.0048734082147,74.0048734082147 0 0,0 -1.0618828940210054,0.7037580794527116 l -28.900400421886676 -44.43290965574367" fill="red" stroke="none" /><path d="M 111.45004920935366 117.60387380957326 l 30.734372788029287 47.25254977374815 a77.36847639234274,77.36847639234274 0 0,0 -1.1226467954594896,0.7165263010569732 l -29.916444190522867 -47.77459050362893" fill="red" stroke="none" /><line stroke="#e1ed5e" stroke-width="0.3" x1="143.8653032363475" x2="146.44561519142675" y1="172.8068346515853" y2="177.08958963109032" /><path d="M 144.38136562736335 173.6633856474863 a86.0,86.0 0 0,1 -40.68145358897372,12.25698825130547" fill="none" id="id42" stroke="none" /><text fill="#e1ed5e" style="font-size:6.75px; font-family:Arial;" text-anchor="middle"><textPath startOffset="21.466115282336833" xlink:href="#id42">June</textPath></text><path d="M 110.5260780823613 118.17145234162733 l 27.435755131272348 47.36308365980074 a75.73556753509021,75.73556753509021 0 0,0 -1.1336937639323053,0.6437409067505103 l -26.616412600418844 -47.82832773234588" fill="red" stroke="none" /><path d="M 109.89434966115114 118.52300852407294 l 25.49540919746393 47.72943124736997 a75.1120550094297,75.1120550094297 0 0,0 -1.1456702166405066,0.5993605096279301 l -24.670048078296926 -48.161221175942615" fill="red" stroke="none" /><path d="M 109.2508944713604 118.85261126421891 l 24.050905190115756 49.01389454885426 a75.5967755394963,75.5967755394963 0 0,0 -1.1731443565881772,0.5631805830274695 l -23.203648165527344 -49.42062940838129" fill="red" stroke="none" /><path d="M 108.59647513512805 119.15986991738527 l 21.791261735797658 48.568481107734776 a74.23303903733498,74.23303903733498 0 0,0 -1.1703344991707376,0.5130402514758955 l -20.952006561969167 -48.93638591250513" fill="red" stroke="none" /><path d="M 107.93186726928326 119.44442032107085 l 20.278505664679777 49.71134466082407 a74.68831884106348,74.68831884106348 0 0,0 -1.1945824840275432,0.47534902376732346 l -19.419802104610365 -50.053040528997464" fill="red" stroke="none" /><path d="M 104.83641907484287 120.43548508189849 l 12.39063493941084 52.35456885377684 a74.8008244738555,74.8008244738555 0 0,0 -1.2555134969445396,0.2857507843035702 l -11.487601293073437 -52.5600963716581" fill="red" stroke="none" /><path d="M 104.48393922423573 120.51570834832081 l 11.655083910424764 53.326392335800854 a75.58520953986347,75.58520953986347 0 0,0 -1.2734615488025394,0.2668662491862886 l -10.735430900192847 -53.51911456571368" fill="red" stroke="none" /><path d="M 102.34483914955558 120.86867818915974 l 6.067105465806906 53.99622892240304 a75.33601482050169,75.33601482050169 0 0,0 -1.2899226300518871,0.13370575478030677 l -5.136750239149416 -54.09266404563911" fill="red" stroke="none" /><path d="M 101.98527174616119 120.90594882070398 l 4.9626989267909085 52.25981278213864 a73.4949179698583,73.4949179698583 0 0,0 -1.2604577297125594,0.10875759664912589 l -4.0623968793368075 -52.33749463106643" fill="red" stroke="none" /><line stroke="#e1ed5e" stroke-width="0.3" x1="102.19456741930631" x2="102.32365962044197" y1="184.97166512339345" y2="189.96999836594603" /><path d="M 102.22038585953345 185.97133177190398 a86.0,86.0 0 0,1 -42.740103519485714,-10.115201625700543" fill="none" id="id43" stroke="none" /><text fill="#e1ed5e" style="font-size:6.75px; font-family:Arial;" text-anchor="middle"><textPath startOffset="22.20632615414155" xlink:href="#id43">July</textPath></text><path d="M 94.81253420990036 120.34920634021253 l -13.094678068344388 51.36733749260588 a74.01013068077509,74.01013068077509 0 0,0 -1.2317737143667389,-0.32532263338133066 l 13.976942225522617 -51.13432350992096" fill="red" stroke="none" /><path d="M 94.46302465271185 120.25689768951611 l -14.102528444741937 51.5937778210522 a74.48643957474505,74.48643957474505 0 0,0 -1.2338814631863246,-0.34870722640526197 l 14.988541076032876 -51.34338180130842" fill="red" stroke="none" /><path d="M 93.42475214034765 119.94407469862007 l -16.74566395419748 50.79303167107714 a74.48223375669676,74.48223375669676 0 0,0 -1.2141677606362846,-0.4119116265551692 l 17.61750144777099 -50.49725705762385" fill="red" stroke="none" /><path d="M 91.7346041902142 119.30500536409082 l -21.003736846006568 49.057209335098634 a74.36447085134436,74.36447085134436 0 0,0 -1.1724066113760478,-0.513948604572931 l 21.84506413204036 -48.68839617723125" fill="red" stroke="none" /><line stroke="#e1ed5e" stroke-width="0.3" x1="58.666819895761336" x2="56.23545636021788" y1="174.27360380694188" y2="178.64263932499728" /><path d="M 58.180547188652646 175.14741091055294 a86.0,86.0 0 0,1 -31.652253787137756,-30.449443065178592" fill="none" id="id44" stroke="none" /><text fill="#e1ed5e" style="font-size:6.75px; font-family:Arial;" text-anchor="middle"><textPath startOffset="22.20632615414155" xlink:href="#id44">August</textPath></text><line stroke="#e1ed5e" stroke-width="0.3" x1="26.63291911575756" x2="22.317208475507996" y1="142.92168965132927" y2="145.44649492493687" /><path d="M 25.769776987707644 143.4266507060508 a86.0,86.0 0 0,1 -11.730757126820373,-40.83630448921669" fill="none" id="id45" stroke="none" /><text fill="#e1ed5e" style="font-size:6.75px; font-family:Arial;" text-anchor="middle"><textPath startOffset="21.46611528233685" xlink:href="#id45">September</textPath></text><line stroke="#e1ed5e" stroke-width="0.3" x1="15.007084014347285" x2="10.007500721073583" y1="101.09737516637583" y2="101.16192664675087" /><path d="M 14.007167355692545 101.11028546245083 a86.0,86.0 0 0,1 10.666146001902534,-42.60595125391555" fill="none" id="id46" stroke="none" /><text fill="#e1ed5e" style="font-size:6.75px; font-family:Arial;" text-anchor="middle"><textPath startOffset="22.20632615414155" xlink:href="#id46">October</textPath></text><line stroke="#e1ed5e" stroke-width="0.3" x1="26.266209847984243" x2="21.928928074336255" y1="57.711370442889674" y2="55.22380399835377" /><path d="M 25.398753493254645 57.213857153982495 a86.0,86.0 0 0,1 29.58750427330803,-30.492523968695096" fill="none" id="id47" stroke="none" /><text fill="#e1ed5e" style="font-size:6.75px; font-family:Arial;" text-anchor="middle"><textPath startOffset="21.46611528233685" xlink:href="#id47">November</textPath></text><line stroke="#e1ed5e" stroke-width="0.3" x1="56.762969772571076" x2="54.21961505331055" y1="26.818313649435495" y2="22.513508569990535" /><path d="M 56.25429882871897 25.957352633546506 a86.0,86.0 0 0,1 42.265352541879196,-11.944610805530505" fill="none" id="id48" stroke="none" /><text fill="#e1ed5e" style="font-size:6.75px; font-family:Arial;" text-anchor="middle"><textPath startOffset="22.20632615414155" xlink:href="#id48">December</textPath></text></svg>