<?xml version="1.0" encoding="utf-8" ?>
<svg baseProfile="full" height="200mm" version="1.1" viewBox="0,0,200,200" width="200mm" xmlns="http://www.w3.org/2000/svg" xmlns:ev="http://www.w3.org/2001/xml-events" xmlns:xlink="http://www.w3.org/1999/xlink"><defs /><rect fill="#1a1a1a" height="200" width="200" x="0" y="0" /><text alignment-baseline="middle" fill="#e1ed5e" style="dominant-baseline: central; font-size:9.0px; font-family:Arial;" text-anchor="middle" x="100.0" y="100.0">2025</text><line stroke="#e1ed5e" stroke-width="0.3" x1="100.0" x2="100.0" y1="15.0" y2="10.0" /><path d="M 100.0 14.0 a86.0,86.0 0 0,1 42.46469731375804,11.215312516191453" fill="none" id="id85" stroke="none" /><text fill="#e1ed5e" style="font-size:6.75px; font-family:Arial;" text-anchor="middle"><textPath startOffset="22.20632615414155" xlink:href="#id85">January</textPath></text><path d="M 100.0 79.0 l 0.0 -63.0 a84.0,84.0 0 0,0 1.4459219170901134,0.012445506434235476 l -1.084441437817585 62.990665870174325" fill="red" stroke="none" /><path d="M 100.72285384407766 79.0124445844662 l 1.2107610525363213 -35.15359971212386 a56.17444406165609,56.17444406165609 0 0,0 0.9660912122999891,0.041601919828485656 l -1.8156930972256418 35.127550065771175" fill="red" stroke="none" /><path d="M 101.08401301168833 79.027996857942 l 1.8074091568753827 -34.967283702562426 a56.01396374870809,56.01396374870809 0 0,0 0.9624744721645753,0.058059088564740076 l -2.4090456778795697 34.93099134461738" fill="red" stroke="none" /><path d="M 101.44485096284872 79.0497635885617 l 2.4588955719462717 -35.653811270434126 a56.73850060566996,56.73850060566996 0 0,0 0.9737672504359144,0.07558307991729829 l -3.072253011744527 35.60620292832836" fill="red" stroke="none" /><path d="M 102.16513564639614 79.11191278185805 l 3.3348717995755104 -32.173084918167966 a53.34545969794294,53.34545969794294 0 0,0 0.9125459685752924,0.10253517225618845 l -3.8881844716605283 32.11091379244118" fill="red" stroke="none" /><path d="M 102.52436894288641 79.15227682838746 l 3.5145433538712276 -29.025165724135245 a50.23717257704233,50.23717257704233 0 0,0 0.8575850690609147,0.11133915482039038 l -4.013643151439989 28.96036824615072" fill="red" stroke="none" /><path d="M 103.95276090670814 79.375362276772 l 7.541814795343737 -39.351532157098205 a61.067718346798834,61.067718346798834 0 0,0 1.0306881275860102,0.2067463421832705 l -8.218069332396873 39.215881858837726" fill="red" stroke="none" /><path d="M 105.71112130821622 79.79150937346287 l 6.815321356666384 -24.11564215154939 a46.060183590233706,46.060183590233706 0 0,0 0.7611111561555225,0.22218921752390408 l -7.229422730545334 23.994754605106785" fill="red" stroke="none" /><path d="M 106.0581310904928 79.89281104454417 l 11.96517943323639 -39.71292798988406 a62.476284409277305,62.476284409277305 0 0,0 1.0270346303222777,0.31910465898954127 l -12.646999436269384 39.501083196012" fill="red" stroke="none" /><path d="M 106.40334571778207 80.00007090966166 l 10.687556188978606 -33.38104412119976 a56.05022059722392,56.05022059722392 0 0,0 0.9163335022918494,0.30210074875466786 l -11.260572513512873 33.192129648185855" fill="red" stroke="none" /><line stroke="#e1ed5e" stroke-width="0.3" x1="143.23703022742887" x2="145.7803849466894" y1="26.81831364943548" y2="22.513508569990506" /><path d="M 143.74570117128098 25.957352633546492 a86.0,86.0 0 0,1 28.547481713284135,27.462654790039103" fill="none" id="id86" stroke="none" /><text fill="#e1ed5e" style="font-size:6.75px; font-family:Arial;" text-anchor="middle"><textPath startOffset="19.985693538727396" xlink:href="#id86">February</textPath></text><path d="M 111.90073688211348 82.69761687909136 l 14.20113992562513 -20.64692011770294 a46.059283420201595,46.059283420201595 0 0,0 0.649367597800606,0.4549235006086461 l -14.554438663009385 20.39941177433036" fill="red" stroke="none" /><path d="M 112.48926042617603 83.11751280151076 l 14.9049117037209 -20.147868844602634 a46.061783892513034,46.061783892513034 0 0,0 0.6333579649387286,0.4770320883042077 l -15.249515822418012 19.88832016679258" fill="red" stroke="none" /><path d="M 112.77801427241765 83.33499621200491 l 19.578794638334198 -25.53453767198555 a53.1767278263672,53.1767278263672 0 0,0 0.7216017263648705,0.5632215932847044 l -20.015428919858497 25.193737689477622" fill="red" stroke="none" /><line stroke="#e1ed5e" stroke-width="0.3" x1="172.23445277983987" x2="176.4835382374775" y1="55.19839476539836" y2="52.563006222186495" /><path d="M 173.08426987136738 54.67131705675599 a86.0,86.0 0 0,1 12.851231095245387,41.99856678651699" fill="none" id="id87" stroke="none" /><text fill="#e1ed5e" style="font-size:6.75px; font-family:Arial;" text-anchor="middle"><textPath startOffset="22.20632615414155" xlink:href="#id87">March</textPath></text><line stroke="#e1ed5e" stroke-width="0.3" x1="184.98032266829074" x2="189.97916517819016" y1="98.17113171792111" y2="98.06355123074" /><path d="M 185.9800911702706 98.14961562048488 a86.0,86.0 0 0,1 -9.607161424134198,41.387399972396054" fill="none" id="id88" stroke="none" /><text fill="#e1ed5e" style="font-size:6.75px; font-family:Arial;" text-anchor="middle"><textPath startOffset="21.466115282336823" xlink:href="#id88">April</textPath></text><line stroke="#e1ed5e" stroke-width="0.3" x1="174.80103733775053" x2="179.2010983576182" y1="140.37084112569926" y2="142.7455964860345" /><path d="M 175.68104954172406 140.8457921977663 a86.0,86.0 0 0,1 -30.038265399797805,32.042727171017184" fill="none" id="id89" stroke="none" /><text fill="#e1ed5e" style="font-size:6.75px; font-family:Arial;" text-anchor="middle"><textPath startOffset="22.206326154141568" xlink:href="#id89">May</textPath></text><line stroke="#e1ed5e" stroke-width="0.3" x1="143.8653032363475" x2="146.44561519142675" y1="172.8068346515853" y2="177.08958963109032" /><path d="M 144.38136562736335 173.6633856474863 a86.0,86.0 0 0,1 -40.68145358897372,12.25698825130547" fill="none" id="id90" stroke="none" /><text fill="#e1ed5e" style="font-size:6.75px; font-family:Arial;" text-anchor="middle"><textPath startOffset="21.466115282336833" xlink:href="#id90">June</textPath></text><line stroke="#e1ed5e" stroke-width="0.3" x1="102.19456741930631" x2="102.32365962044197" y1="184.97166512339345" y2="189.96999836594603" /><path d="M 102.22038585953345 185.97133177190398 a86.0,86.0 0 0,1 -42.740103519485714,-10.115201625700543" fill="none" id="id91" stroke="none" /><text fill="#e1ed5e" style="font-size:6.75px; font-family:Arial;" text-anchor="middle"><textPath startOffset="22.20632615414155" xlink:href="#id91">July</textPath></text><line stroke="#e1ed5e" stroke-width="0.3" x1="58.666819895761336" x2="56.23545636021788" y1="174.27360380694188" y2="178.64263932499728" /><path d="M 58.180547188652646 175.14741091055294 a86.0,86.0 0 0,1 -31.652253787137756,-30.449443065178592" fill="none" id="id92" stroke="none" /><text fill="#e1ed5e" style="font-size:6.75px; font-family:Arial;" text-anchor="middle"><textPath startOffset="22.20632615414155" xlink:href="#id92">August</textPath></text><line stroke="#e1ed5e" stroke-width="0.3" x1="26.63291911575756" x2="22.317208475507996" y1="142.92168965132927" y2="145.44649492493687" /><path d="M 25.769776987707644 143.4266507060508 a86.0,86.0 0 0,1 -11.730757126820373,-40.83630448921669" fill="none" id="id93" stroke="none" /><text fill="#e1ed5e" style="font-size:6.75px; font-family:Arial;" text-anchor="middle"><textPath startOffset="21.46611528233685" xlink:href="#id93">September</textPath></text><line stroke="#e1ed5e" stroke-width="0.3" x1="15.007084014347285" x2="10.007500721073583" y1="101.09737516637583" y2="101.16192664675087" /><path d="M 14.007167355692545 101.11028546245083 a86.0,86.0 0 0,1 10.666146001902534,-42.60595125391555" fill="none" id="id94" stroke="none" /><text fill="#e1ed5e" style="font-size:6.75px; font-family:Arial;" text-anchor="middle"><textPath startOffset="22.20632615414155" xlink:href="#id94">October</textPath></text><line stroke="#e1ed5e" stroke-width="0.3" x1="26.266209847984243" x2="21.928928074336255" y1="57.711370442889674" y2="55.22380399835377" /><path d="M 25.398753493254645 57.213857153982495 a86.0,86.0 0 0,1 29.58750427330803,-30.492523968695096" fill="none" id="id95" stroke="none" /><text fill="#e1ed5e" style="font-size:6.75px; font-family:Arial;" text-anchor="middle"><textPath startOffset="21.46611528233685" xlink:href="#id95">November</textPath></text><line stroke="#e1ed5e" stroke-width="0.3" x1="56.762969772571076" x2="54.21961505331055" y1="26.818313649435495" y2="22.513508569990535" /><path d="M 56.25429882871897 25.957352633546506 a86.0,86.0 0 0,1 42.265352541879196,-11.944610805530505" fill="none" id="id96" stroke="none" /><text fill="#e1ed5e" style="font-size:6.75px; font-family:Arial;" text-anchor="middle"><textPath startOffset="22.20632615414155" xlink:href="#id96">December</textPath></text></svg>