<?xml version="1.0" encoding="utf-8" ?>
<svg baseProfile="full" height="200mm" version="1.1" viewBox="0,0,200,200" width="200mm" xmlns="http://www.w3.org/2000/svg" xmlns:ev="http://www.w3.org/2001/xml-events" xmlns:xlink="http://www.w3.org/1999/xlink"><defs /><rect fill="#1a1a1a" height="200" width="200" x="0" y="0" /><text alignment-baseline="middle" fill="#e1ed5e" style="dominant-baseline: central; font-size:9.0px; font-family:Arial;" text-anchor="middle" x="100.0" y="100.0">2025</text><line stroke="#e1ed5e" stroke-width="0.3" x1="100.0" x2="100.0" y1="15.0" y2="10.0" /><path d="M 100.0 14.0 a86.0,86.0 0 0,1 42.46469731375804,11.215312516191453" fill="none" id="id85" stroke="none" /><text fill="#e1ed5e" style="font-size:6.75px; font-family:Arial;" text-anchor="middle"><textPath startOffset="22.20632615414155" xlink:href="#id85">January</textPath></text><path d="M 100.0 79.0 l 0.0 -37.17737962849324 a58.17737962849324,58.17737962849324 0 0,0 1.0014279557584556,0.008619606577302054 l -0.6399474764859271 37.1718713985245" fill="#71ff27" stroke="none" /><path d="M 100.72285384407766 79.0124445844662 l 0.7144908458656646 -20.744741615963804 a41.75704222383156,41.75704222383156 0 0,0 0.7181399338782163,0.03092461620027499 l -1.0714716121332124 20.72936927323933" fill="#ffaa0f" stroke="none" /><path d="M 101.08401301168833 79.027996857942 l 1.066583116970968 -20.634793345831554 a41.66234004101621,41.66234004101621 0 0,0 0.7158739724260803,0.04318347298376051 l -1.4216191382366605 20.61337660346749" fill="#ffa90f" stroke="none" /><path d="M 101.44485096284872 79.0497635885617 l 1.4510364150010726 -21.039925028628264 a42.0899016566687,42.0899016566687 0 0,0 0.72236254694465,0.05606923635041046 l -1.8129891513080638 21.011830530089387" fill="#ffaf10" stroke="none" /><path d="M 102.16513564639614 79.11191278185805 l 1.9679649984948446 -18.985888759087004 a40.08761007061196,40.08761007061196 0 0,0 0.685752586384889,0.07705229324488534 l -2.2944842883894587 18.94920051237152" fill="#ff910d" stroke="none" /><path d="M 102.52436894288641 79.15227682838746 l 2.073992261709024 -17.128247696922323 a38.25335657397579,38.25335657397579 0 0,0 0.6530126150908515,0.08477977902633468 l -2.3685196053077218 17.09000959473185" fill="#ff740a" stroke="none" /><path d="M 103.95276090670814 79.375362276772 l 4.450554154512399 -23.222013491544434 a44.64464723534101,44.64464723534101 0 0,0 0.7535029817950234,0.151145609560064 l -4.849623545774548 23.141963925907163" fill="#ffd614" stroke="none" /><path d="M 105.71112130821622 79.79150937346287 l 4.021837926459743 -14.231053702429294 a35.78844379196596,35.78844379196596 0 0,0 0.5913780994413083,0.17263948388215256 l -4.266206243624479 14.159715889628439" fill="#ff4c07" stroke="none" /><path d="M 106.0581310904928 79.89281104454417 l 7.060857430356648 -23.435279365697372 a45.47586620735012,45.47586620735012 0 0,0 0.7475682954013151,0.23227310835718643 l -7.463211098468681 23.310266122457666" fill="#ffe215" stroke="none" /><path d="M 106.40334571778207 80.00007090966166 l 6.30691005934143 -19.698726185544857 a41.68373582865757,41.68373582865757 0 0,0 0.6814639306232068,0.22466794368607573 l -6.645056812207054 19.587244517599544" fill="#ffa90f" stroke="none" /><line stroke="#e1ed5e" stroke-width="0.3" x1="143.23703022742887" x2="145.7803849466894" y1="26.81831364943548" y2="22.513508569990506" /><path d="M 143.74570117128098 25.957352633546492 a86.0,86.0 0 0,1 28.547481713284135,27.462654790039103" fill="none" id="id86" stroke="none" /><text fill="#e1ed5e" style="font-size:6.75px; font-family:Arial;" text-anchor="middle"><textPath startOffset="19.985693538727396" xlink:href="#id86">February</textPath></text><path d="M 111.90073688211348 82.69761687909136 l 8.380336034481234 -12.184101386905027 a35.78791258620383,35.78791258620383 0 0,0 0.5045564998132039,0.35347407220085697 l -8.588823673878089 12.038042471940233" fill="#ff4c07" stroke="none" /><path d="M 112.48926042617603 83.11751280151076 l 8.795643821244505 -11.889602678426723 a35.7893881577653,35.7893881577653 0 0,0 0.49211064215185296,0.3706475331452303 l -8.999000617154742 11.736438555775646" fill="#ff4c07" stroke="none" /><path d="M 112.77801427241765 83.33499621200491 l 11.553782237105693 -15.068368264594747 a39.98803850164374,39.98803850164374 0 0,0 0.5426328169523685,0.4235335207304445 l -11.811447609217492 14.867256354641079" fill="#ff8f0d" stroke="none" /><path d="M 113.06298171725822 83.55741782278167 l 13.790605303645416 -17.358453520546277 a43.169724925354814,43.169724925354814 0 0,0 0.5778506172106197,0.46724834563418455 l -14.087359319420527 17.11849907764796" fill="#ffc011" stroke="none" /><path d="M 113.89432698308785 84.25364557470407 l 13.688219310128162 -15.512773880362277 a41.688487169085505,41.688487169085505 0 0,0 0.5339878567728358,0.47941957020202736 l -13.953218154496987 15.274855301390952" fill="#ffa90f" stroke="none" /><path d="M 114.42810811169701 84.74124197986012 l 17.618448282440475 -18.63277132045889 a46.64351549537514,46.64351549537514 0 0,0 0.5786389220651924,0.556650184571698 l -17.936570448118086 18.326738049124888" fill="#fff316" stroke="none" /><path d="M 114.94478906791727 85.2469230424477 l 21.114366196712837 -20.84351060389083 a50.6693173865426,50.6693173865426 0 0,0 0.6073941866648648,0.6259731008144885 l -21.470024647080812 20.476973307526226" fill="#d2ff1c" stroke="none" /><path d="M 115.4437574822437 85.77008943001954 l 13.824184455828915 -12.737632582972948 a39.79774879307615,39.79774879307615 0 0,0 0.45986556351454383,0.5077950410500678 l -14.041393659959494 12.497784754653331" fill="#ff8c0c" stroke="none" /><path d="M 115.68641384162765 86.03803664274999 l 13.203096236865699 -11.751643665818063 a38.67548808628206,38.67548808628206 0 0,0 0.4383371830777679,0.5010951745016939 l -13.403425283521315 11.522632935113421" fill="#ff7a0b" stroke="none" /><path d="M 116.15771136456269 86.58626213691792 l 11.99454427319808 -9.957578089968921 a36.58917745551503,36.58917745551503 0 0,0 0.39812772486995474,0.4880575155384832 l -12.164170490144445 9.749636404822336" fill="#ff5908" stroke="none" /><path d="M 116.60985879189232 87.15038557335679 l 25.751643361764227 -19.92182427298035 a53.55804383243878,53.55804383243878 0 0,0 0.5578301324136137,0.7340390661431807 l -26.090749434401953 19.475600430956135" fill="#acff21" stroke="none" /><line stroke="#e1ed5e" stroke-width="0.3" x1="172.23445277983987" x2="176.4835382374775" y1="55.19839476539836" y2="52.563006222186495" /><path d="M 173.08426987136738 54.67131705675599 a86.0,86.0 0 0,1 12.851231095245387,41.99856678651699" fill="none" id="id87" stroke="none" /><text fill="#e1ed5e" style="font-size:6.75px; font-family:Arial;" text-anchor="middle"><textPath startOffset="22.20632615414155" xlink:href="#id87">March</textPath></text><path d="M 118.03404312379186 89.2402003453031 l 54.10212937137558 -32.279398964090696 a84.0,84.0 0 0,0 0.7301613021186908,1.2480823505844187 l -54.6497503479646 31.34333720115238" fill="#4dd2ff" stroke="none" /><path d="M 118.89224826269711 90.83032412892265 l 17.162696805079765 -8.330208484868205 a40.077487649700245,40.077487649700245 0 0,0 0.29588981292829697,0.6232194073372471 l -17.303544811849818 8.033546661890417" fill="#ff900d" stroke="none" /><path d="M 119.04729006885535 91.15688171328212 l 13.60093462497526 -6.314529429844559 a35.99528941345328,35.99528941345328 0 0,0 0.2560768018382707,0.5642312885842435 l -13.707613743776879 6.079476132418253" fill="#ff4f07" stroke="none" /><path d="M 119.196687751892 91.48605970444005 l 20.012137332181872 -8.875601074250428 a42.89205186891678,42.89205186891678 0 0,0 0.29352315845109284,0.6774919188264523 l -20.161951200475645 8.529810010837371" fill="#ffbc11" stroke="none" /><path d="M 119.47837535516314 92.15188598940014 l 18.10414624030161 -7.294417587080622 a40.51841794369969,40.51841794369969 0 0,0 0.25508553336886414,0.6491648589145841 l -18.227025323552176 6.981703723270253" fill="#ff970e" stroke="none" /><path d="M 119.97218684219823 93.5106431181261 l 18.680579131242308 -6.0696880967780205 a40.641923283394995,40.641923283394995 0 0,0 0.2104564898182127,0.667204585145746 l -18.782291104828726 5.7472333452058555" fill="#ff990e" stroke="none" /><path d="M 120.18372546131832 94.20196356495316 l 14.49623582541459 -4.164231407520116 a36.082495692736344,36.082495692736344 0 0,0 0.16634585400186186,0.5984345425816392 l -14.565768449982814 3.914085561519525" fill="#ff5107" stroke="none" /><path d="M 120.53481517161879 95.60439243477599 l 19.830956530560385 -4.244942154231631 a41.28019651802586,41.28019651802586 0 0,0 0.14275223504315862,0.6961105954948248 l -19.90108806151854 3.9029559025733946" fill="#ffa30f" stroke="none" /><path d="M 120.6074358757038 95.95851677861258 l 28.961843515055293 -5.679930551890983 a50.51355605251348,50.51355605251348 0 0,0 0.15999393397960382,0.8546939928943661 l -29.055323172944757 5.180558481534054" fill="#d5ff1c" stroke="none" /><path d="M 120.67395015179393 96.31383870115 l 23.46960702192362 -4.184626376102871 a44.839747307199005,44.839747307199005 0 0,0 0.12894232713263526,0.7610249137434459 l -23.538161210576476 3.7800156740435873" fill="#ffd914" stroke="none" /><path d="M 120.83666639777658 97.38593545837742 l 14.736495580327164 -1.8487674481567573 a35.85201141483422,35.85201141483422 0 0,0 0.07154976869080967,0.6129947234354802 l -14.766135702021561 1.5948289863964242" fill="#ff4d07" stroke="none" /><path d="M 120.91429891909075 98.10471618934814 l 11.781909369595645 -1.067693551342477 a32.83018841409316,32.83018841409316 0 0,0 0.046158488534730646,0.5632504752878342 l -11.79854234194987 0.8647291588468741" fill="#ff1b02" stroke="none" /><path d="M 120.94382443527127 98.46500227214037 l 38.53136422889736 -2.8240093744809576 a59.63471312546668,59.63471312546668 0 0,0 0.06622125074795754,1.024413438851555 l -38.574266070649735 2.1603368713763675" fill="#5fff29" stroke="none" /><line stroke="#e1ed5e" stroke-width="0.3" x1="184.98032266829074" x2="189.97916517819016" y1="98.17113171792111" y2="98.06355123074" /><path d="M 185.9800911702706 98.14961562048488 a86.0,86.0 0 0,1 -9.607161424134198,41.387399972396054" fill="none" id="id88" stroke="none" /><text fill="#e1ed5e" style="font-size:6.75px; font-family:Arial;" text-anchor="middle"><textPath startOffset="21.466115282336823" xlink:href="#id88">April</textPath></text><path d="M 120.99980553446 99.90962569577887 l 14.809968037007344 -0.06373585482424478 a35.810105182488385,35.810105182488385 0 0,0 -0.002652851318837113,0.6164292194285077 l -14.808870888399003 -0.19120284280794758" fill="#ff4c07" stroke="none" /><path d="M 120.9904718944345 100.63252640178507 l 26.8397663332521 0.8087889071243479 a47.85194958135927,47.85194958135927 0 0,0 -0.03189643966908524,0.8231053792155033 l -26.821867760731813 -1.2706715333538574" fill="#faff18" stroke="none" /><path d="M 120.95626037817324 101.35467743843564 l 20.68512437935878 1.3371503694971285 a41.72829808981406,41.72829808981406 0 0,0 -0.052505011267296765,0.7163891633165941 l -20.659042809427145 -1.693012669310493" fill="#ffaa0f" stroke="none" /><path d="M 120.89721153311464 102.0752229133903 l 15.337640500351025 1.5231229751985729 a36.41308274536881,36.41308274536881 0 0,0 -0.06730819368699888,0.6231902795332851 l -15.309150005162973 -1.7869095766166494" fill="#ff5608" stroke="none" /><path d="M 120.8583938346157 102.4346265915055 l 10.202602053318738 1.1908647644928387 a31.27186679945249,31.27186679945249 0 0,0 -0.06700889566709334,0.5341268291072893 l -10.180591648404796 -1.3663093478875228" fill="#ff0000" stroke="none" /><path d="M 120.70491114924044 103.5080841355445 l 29.838969790243638 5.055690207392432 a51.26423832869739,51.26423832869739 0 0,0 -0.15489991917750343,0.8687610085298504 l -29.747523428726943 -5.5685699666555015" fill="#caff1d" stroke="none" /><line stroke="#e1ed5e" stroke-width="0.3" x1="174.80103733775053" x2="179.2010983576182" y1="140.37084112569926" y2="142.7455964860345" /><path d="M 175.68104954172406 140.8457921977663 a86.0,86.0 0 0,1 -30.038265399797805,32.042727171017184" fill="none" id="id89" stroke="none" /><text fill="#e1ed5e" style="font-size:6.75px; font-family:Arial;" text-anchor="middle"><textPath startOffset="22.206326154141568" xlink:href="#id89">May</textPath></text><line stroke="#e1ed5e" stroke-width="0.3" x1="143.8653032363475" x2="146.44561519142675" y1="172.8068346515853" y2="177.08958963109032" /><path d="M 144.38136562736335 173.6633856474863 a86.0,86.0 0 0,1 -40.68145358897372,12.25698825130547" fill="none" id="id90" stroke="none" /><text fill="#e1ed5e" style="font-size:6.75px; font-family:Arial;" text-anchor="middle"><textPath startOffset="21.466115282336833" xlink:href="#id90">June</textPath></text><line stroke="#e1ed5e" stroke-width="0.3" x1="102.19456741930631" x2="102.32365962044197" y1="184.97166512339345" y2="189.96999836594603" /><path d="M 102.22038585953345 185.97133177190398 a86.0,86.0 0 0,1 -42.740103519485714,-10.115201625700543" fill="none" id="id91" stroke="none" /><text fill="#e1ed5e" style="font-size:6.75px; font-family:Arial;" text-anchor="middle"><textPath startOffset="22.20632615414155" xlink:href="#id91">July</textPath></text><line stroke="#e1ed5e" stroke-width="0.3" x1="58.666819895761336" x2="56.23545636021788" y1="174.27360380694188" y2="178.64263932499728" /><path d="M 58.180547188652646 175.14741091055294 a86.0,86.0 0 0,1 -31.652253787137756,-30.449443065178592" fill="none" id="id92" stroke="none" /><text fill="#e1ed5e" style="font-size:6.75px; font-family:Arial;" text-anchor="middle"><textPath startOffset="22.20632615414155" xlink:href="#id92">August</textPath></text><line stroke="#e1ed5e" stroke-width="0.3" x1="26.63291911575756" x2="22.317208475507996" y1="142.92168965132927" y2="145.44649492493687" /><path d="M 25.769776987707644 143.4266507060508 a86.0,86.0 0 0,1 -11.730757126820373,-40.83630448921669" fill="none" id="id93" stroke="none" /><text fill="#e1ed5e" style="font-size:6.75px; font-family:Arial;" text-anchor="middle"><textPath startOffset="21.46611528233685" xlink:href="#id93">September</textPath></text><line stroke="#e1ed5e" stroke-width="0.3" x1="15.007084014347285" x2="10.007500721073583" y1="101.09737516637583" y2="101.16192664675087" /><path d="M 14.007167355692545 101.11028546245083 a86.0,86.0 0 0,1 10.666146001902534,-42.60595125391555" fill="none" id="id94" stroke="none" /><text fill="#e1ed5e" style="font-size:6.75px; font-family:Arial;" text-anchor="middle"><textPath startOffset="22.20632615414155" xlink:href="#id94">October</textPath></text><line stroke="#e1ed5e" stroke-width="0.3" x1="26.266209847984243" x2="21.928928074336255" y1="57.711370442889674" y2="55.22380399835377" /><path d="M 25.398753493254645 57.213857153982495 a86.0,86.0 0 0,1 29.58750427330803,-30.492523968695096" fill="none" id="id95" stroke="none" /><text fill="#e1ed5e" style="font-size:6.75px; font-family:Arial;" text-anchor="middle"><textPath startOffset="21.46611528233685" xlink:href="#id95">November</textPath></text><line stroke="#e1ed5e" stroke-width="0.3" x1="56.762969772571076" x2="54.21961505331055" y1="26.818313649435495" y2="22.513508569990535" /><path d="M 56.25429882871897 25.957352633546506 a86.0,86.0 0 0,1 42.265352541879196,-11.944610805530505" fill="none" id="id96" stroke="none" /><text fill="#e1ed5e" style="font-size:6.75px; font-family:Arial;" text-anchor="middle"><textPath startOffset="22.20632615414155" xlink:href="#id96">December</textPath></text></svg>