<?xml version="1.0" encoding="utf-8" ?>
<svg baseProfile="full" height="200mm" version="1.1" viewBox="0,0,200,200" width="200mm" xmlns="http://www.w3.org/2000/svg" xmlns:ev="http://www.w3.org/2001/xml-events" xmlns:xlink="http://www.w3.org/1999/xlink"><defs /><rect fill="#1a1a1a" height="200" width="200" x="0" y="0" /><text alignment-baseline="middle" fill="#e1ed5e" style="dominant-baseline: central; font-size:9.0px; font-family:Arial;" text-anchor="middle" x="100.0" y="100.0">2024</text><line stroke="#e1ed5e" stroke-width="0.3" x1="100.0" x2="100.0" y1="15.0" y2="10.0" /><path d="M 100.0 14.0 a86.0,86.0 0 0,1 42.35913384403234,11.155469271406648" fill="none" id="id73" stroke="none" /><text fill="#e1ed5e" style="font-size:6.75px; font-family:Arial;" text-anchor="middle"><textPath startOffset="22.145653131862478" xlink:href="#id73">January</textPath></text><line stroke="#e1ed5e" stroke-width="0.3" x1="143.13028292997686" x2="145.6673583964461" y1="26.7553504044142" y2="22.446841604673864" /><path d="M 143.63769802327073 25.89364864446614 a86.0,86.0 0 0,1 29.32050498858742,28.57503671076993" fill="none" id="id74" stroke="none" /><text fill="#e1ed5e" style="font-size:6.75px; font-family:Arial;" text-anchor="middle"><textPath startOffset="20.669276256404974" xlink:href="#id74">February</textPath></text><line stroke="#e1ed5e" stroke-width="0.3" x1="172.87174338648825" x2="177.1583165268699" y1="56.24261187166439" y2="53.66864786411523" /><path d="M 173.72905801456457 55.72781907015455 a86.0,86.0 0 0,1 12.242430191666344,42.057860355516425" fill="none" id="id75" stroke="none" /><text fill="#e1ed5e" style="font-size:6.75px; font-family:Arial;" text-anchor="middle"><textPath startOffset="22.145653131862474" xlink:href="#id75">March</textPath></text><path d="M 119.58574465831526 92.42381321644754 l 8.547824898097595 -3.3064822987771003 a30.16504968238926,30.16504968238926 0 0,0 0.18266994003870796,0.4845537184470974 l -8.603325521950744 3.1592603001358452" fill="#ff0000" stroke="none" /><path d="M 119.83427380445688 93.10060997987247 l 8.695651439928387 -3.0247989593482516 a30.206723777175185,30.206723777175185 0 0,0 0.16615795060954336,0.4912164566441359 l -8.746294812110296 2.875080828229954" fill="#ff0100" stroke="none" /><path d="M 120.05942366710727 93.78553927170692 l 8.907289800293228 -2.7595011490891075 a30.32494815954662,30.32494815954662 0 0,0 0.14978167708606685,0.49857448916914976 l -8.953347797382921 2.6061890563292343" fill="#ff0300" stroke="none" /><path d="M 120.26092885502905 94.47779374421319 l 14.67171693498738 -3.998841692858037 a36.20690674348124,36.20690674348124 0 0,0 0.1582940431701774,0.6010682651015975 l -14.738200458962288 3.746392923383641" fill="#ff6309" stroke="none" /><path d="M 120.43855184770803 95.1765574152323 l 14.697358663993358 -3.4685366258696027 a36.10109592125881,36.10109592125881 0 0,0 0.13716549239910875,0.6043764682423074 l -14.754735017950132 3.215725823688269" fill="#ff6108" stroke="none" /><path d="M 120.592083275326 95.88100663000786 l 14.840802541068218 -2.968576149129558 a36.13478987023466,36.13478987023466 0 0,0 0.11644643848209228,0.6092969717195363 l -14.889575271832467 2.7133766123767074" fill="#ff6109" stroke="none" /><path d="M 120.7213421655516 96.59031103205396 l 15.249221771381668 -2.509253639471407 a36.45429126359346,36.45429126359346 0 0,0 0.09630617545053526,0.6183547317812098 l -15.290049438970469 2.2471107257587564" fill="#ff6609" stroke="none" /><line stroke="#e1ed5e" stroke-width="0.3" x1="184.99686870605535" x2="189.99668451229388" y1="99.2704041080226" y2="99.22748670261217" /><path d="M 185.99683186730306 99.26182062694052 a86.0,86.0 0 0,1 -10.086455211305974,41.156179273409016" fill="none" id="id76" stroke="none" /><text fill="#e1ed5e" style="font-size:6.75px; font-family:Arial;" text-anchor="middle"><textPath startOffset="21.40746469413373" xlink:href="#id76">April</textPath></text><path d="M 120.9064616781168 101.97986365728391 l 15.533459636452486 1.4710347776491417 a36.60295842442554,36.60295842442554 0 0,0 -0.06460876651840479,0.6250312077173751 l -15.505918477452415 -1.737470507649448" fill="#ff6909" stroke="none" /><path d="M 120.77682067341334 103.0534771498775 l 15.088864577931382 2.2175434793671953 a36.2509453259146,36.2509453259146 0 0,0 -0.09576896929804701,0.6149054829165536 l -15.048574116495068 -2.476237144215199" fill="#ff6309" stroke="none" /><path d="M 120.65975698304385 103.76489593502545 l 15.475481381792871 2.820148223170915 a36.73034519643075,36.73034519643075 0 0,0 -0.11836564977136432,0.6193390961665259 l -15.424789439739348 -3.0853898843707555" fill="#ff6b09" stroke="none" /><path d="M 120.51834098615036 104.47187691870673 l 15.075282957392414 3.285587755152338 a36.42916858233953,36.42916858233953 0 0,0 -0.13841199882645158,0.6098688055570493 l -15.016660097008298 -3.5438908946484045" fill="#ff6609" stroke="none" /><path d="M 120.35273937422433 105.17358676015961 l 13.05472678308968 3.3184604981494217 a34.469895005488986,34.469895005488986 0 0,0 -0.1506999503362085,0.5722322576731428 l -12.995837351948742 -3.5420732601953677" fill="#ff4706" stroke="none" /><path d="M 120.16314734710363 105.8691983318838 l 14.912219336192637 4.34072971575241 a36.531137112134886,36.531137112134886 0 0,0 -0.18043542741536225,0.6006108544234071 l -14.835507588773645 -4.59607817376654" fill="#ff6809" stroke="none" /><path d="M 119.94978838288452 106.5578916946017 l 20.250410094350524 6.656712022266479 a42.31644726348086,42.31644726348086 0 0,0 -0.2327698364855353,0.6881426610800575 l -20.133154836292626 -7.003356357820697" fill="#ffc011" stroke="none" /><path d="M 119.58574465831526 107.57618678355244 l 20.047101348451985 7.754649462367845 a42.494670519905796,42.494670519905796 0 0,0 -0.26901418122829746,0.6780914697650083 l -19.91102849225756 -8.097641949346418" fill="#ffc212" stroke="none" /><path d="M 119.31412917781788 108.2440532568976 l 19.35726008546513 8.262463276649914 a42.046895671674,42.046895671674 0 0,0 -0.28905462387415354,0.6614135470729421 l -19.212571579574007 -8.593538893498701" fill="#ffbc11" stroke="none" /><path d="M 118.70294669586154 109.54985784667822 l 18.759716948881533 9.578845142374297 a42.06374264616193,42.06374264616193 0 0,0 -0.3338898327537862,0.6402777793300476 l -18.592519047152795 -9.899469164808847" fill="#ffbc11" stroke="none" /><line stroke="#e1ed5e" stroke-width="0.3" x1="174.33088141563837" x2="178.70328620479359" y1="141.23008692659167" y2="143.65538615756765" /><path d="M 175.20536237346943 141.71514677278685 a86.0,86.0 0 0,1 -30.301960400862466,31.631185727798858" fill="none" id="id77" stroke="none" /><text fill="#e1ed5e" style="font-size:6.75px; font-family:Arial;" text-anchor="middle"><textPath startOffset="22.145653131862474" xlink:href="#id77">May</textPath></text><path d="M 118.36410011445183 110.18625677009912 l 18.748089128076312 10.399249003059005 a42.439105060191224,42.439105060191224 0 0,0 -0.35884614652582625,0.634046756937479 l -18.56680961652911 -10.719552530095607" fill="#ffc212" stroke="none" /><path d="M 118.00360718960297 110.81064883170644 l 18.776104967529303 11.274511551687242 a42.901066834307585,42.901066834307585 0 0,0 -0.3845407208217355,0.6281183681052062 l -18.579796282252165 -11.595167035917004" fill="#ffc812" stroke="none" /><path d="M 117.62189284568427 111.42229804090321 l 25.366368933888886 16.442173875171825 a51.22908788950712,51.22908788950712 0 0,0 -0.4846651323822492,0.7338447834047841 l -25.080379362585912 -16.875198536915672" fill="#c2ff1e" stroke="none" /><path d="M 115.41159269507618 114.26474011684316 l 6.8735931896319435 6.362095239535398 a30.36603113242069,30.36603113242069 0 0,0 -0.3573708308076612,0.3795154380140515 l -6.763366525088022 -6.479152137493947" fill="#ff0300" stroke="none" /><path d="M 114.91283532996324 114.78537596483092 l 10.877455140067912 10.7844859966601 a36.317446540998525,36.317446540998525 0 0,0 -0.4427409407020801,0.43895685283606517 l -10.690722279235867 -10.969622859724828" fill="#ff6409" stroke="none" /><path d="M 114.39649973595853 115.28858382429668 l 15.036917511352645 15.9686853087726 a42.934169661371584,42.934169661371584 0 0,0 -0.5409096707501909,0.5006579159338801 l -14.760578069288487 -16.22446097083886" fill="#ffc912" stroke="none" /><path d="M 112.16784306229584 117.11559508785304 l 9.117062702657844 12.824290452330688 a36.73477861076967,36.73477861076967 0 0,0 -0.5170943277137494,0.36097200031349713 l -8.895573283770336 -12.978907268449307" fill="#ff6b09" stroke="none" /><line stroke="#e1ed5e" stroke-width="0.3" x1="143.1302829299769" x2="145.66735839644613" y1="173.24464959558577" y2="177.55315839532614" /><path d="M 143.63769802327073 174.10635135553383 a86.0,86.0 0 0,1 -40.68552437913181,11.842963189579606" fill="none" id="id78" stroke="none" /><text fill="#e1ed5e" style="font-size:6.75px; font-family:Arial;" text-anchor="middle"><textPath startOffset="21.407464694133747" xlink:href="#id78">June</textPath></text><path d="M 105.69591212413111 120.21278271476187 l 4.059614034444571 14.406138050548536 a35.96720680822316,35.96720680822316 0 0,0 -0.5957173087775369,0.16236540154452406 l -3.8117153247323388 -14.473703946237203" fill="#ff5f08" stroke="none" /><path d="M 104.29559338865022 120.5559693870025 l 3.695591972020536 17.684745405471666 a39.06675455304615,39.06675455304615 0 0,0 -0.6576302396857732,0.1315444659461808 l -3.3914652468038042 -17.745579268080707" fill="#ff8f0d" stroke="none" /><path d="M 103.58742460773223 120.69131181640829 l 5.1130823044722735 29.490899983449065 a50.930866884975174,50.930866884975174 0 0,0 -0.8627264352378554,0.14196130661247297 l -4.606078366181346 -29.57432728855721" fill="#c6ff1e" stroke="none" /><path d="M 102.15924093988457 120.88869738790638 l 2.2152393443981175 21.430431153917542 a42.54462032145772,42.54462032145772 0 0,0 -0.7271087051899966,0.06885795035356357 l -1.8470310758231059 -21.46530085977629" fill="#ffc312" stroke="none" /><path d="M 100.72087961077811 120.9876233191556 l 1.046630589460883 30.471507638009896 a51.489477091680186,51.489477091680186 0 0,0 -0.8836248575857608,0.022759041898254912 l -0.5233924178043783 -30.4849843972582" fill="#beff1f" stroke="none" /><line stroke="#e1ed5e" stroke-width="0.3" x1="101.45913802915013" x2="101.54496967792366" y1="184.9874750549273" y2="189.98673829345242" /><path d="M 101.47630435890484 185.9873277026323 a86.0,86.0 0 0,1 -42.54439059252881,-10.42667462771756" fill="none" id="id79" stroke="none" /><text fill="#e1ed5e" style="font-size:6.75px; font-family:Arial;" text-anchor="middle"><textPath startOffset="22.145653131862474" xlink:href="#id79">July</textPath></text><path d="M 98.19965949673042 120.92268563240118 l -1.883037210192807 21.88374671981611 a42.96461243983224,42.96461243983224 0 0,0 -0.7342865792213997,-0.06953770248714496 l 2.258423352799222 -21.84819726182378" fill="#ffc912" stroke="none" /><path d="M 97.48249496171623 120.84855314841334 l -2.551756164751127 21.13220160976241 a42.285708924064295,42.285708924064295 0 0,0 -0.719908512258255,-0.09320656998236014 l 2.914142498900176 -21.08528344357965" fill="#ffbf11" stroke="none" /><path d="M 97.12497278360702 120.80226474461374 l -2.861984292881092 20.707892647406826 a41.90473085187235,41.90473085187235 0 0,0 -0.7117316881490456,-0.10460004833115988 l 3.2170410866378223 -20.655711525776784" fill="#ffba11" stroke="none" /><path d="M 96.41257539226777 120.69131181640829 l -4.7866605611929165 27.608186111416458 a49.020065304896924,49.020065304896924 0 0,0 -0.8278911677478974,-0.15086934926948478 l 5.259886462491871 -27.521948588215608" fill="#dfff1b" stroke="none" /><path d="M 95.35216902796893 120.47920084513623 l -4.599205738314471 20.26494909342314 a41.78029968942643,41.78029968942643 0 0,0 -0.6980649413395753,-0.16474142542384917 l 4.946402833393934 -20.183011524353063" fill="#ffb811" stroke="none" /><path d="M 94.6519064749342 120.30758222061772 l -5.276786949546526 20.036819538843062 a41.72000525441699,41.72000525441699 0 0,0 -0.6909997038375465,-0.18833504202011572 l 5.619968054318767 -19.9432840026788" fill="#ffb711" stroke="none" /><path d="M 93.95794788825049 120.11202640906438 l -6.8613633807756935 22.839247157103816 a44.8476312900532,44.8476312900532 0 0,0 -0.7354143775356686,-0.2278332540386748 l 7.252418391182996 -22.718097315258493" fill="#ffe515" stroke="none" /><path d="M 93.27111125876986 119.89276391827306 l -12.5093423916737 36.981648016507094 a60.040055546693935,60.040055546693935 0 0,0 -0.9734901123688361,-0.3386303946485393 l 13.142338276087559 -36.761459189289965" fill="#54ff2b" stroke="none" /><path d="M 92.59220618246901 119.65005319985036 l -8.463910270053342 22.451527564348588 a44.99393396323785,44.99393396323785 0 0,0 -0.720390886570241,-0.2786626706842062 l 8.848073419117112 -22.30292500552634" fill="#ffe715" stroke="none" /><path d="M 91.92203290615298 119.3841803445677 l -8.055531875556218 19.330343987924216 a41.94167597136342,41.94167597136342 0 0,0 -0.662208982889107,-0.282657637415189 l 8.386175933615755 -19.189211700849622" fill="#ffba11" stroke="none" /><path d="M 91.26138138417905 119.09545874513695 l -9.95962445307944 21.763576856016478 a44.93423065014027,44.93423065014027 0 0,0 -0.6986444495605914,-0.32700087902064684 l 10.33175761651152 -21.589399745425304" fill="#ffe615" stroke="none" /><path d="M 89.97174638481275 118.45085714620012 l -11.262625431346777 20.721962257738497 a44.584877600232694,44.584877600232694 0 0,0 -0.6693162754201025,-0.37125845532012475 l 11.616685894922982 -20.52557088698522" fill="#ffe115" stroke="none" /><line stroke="#e1ed5e" stroke-width="0.3" x1="58.13341422392154" x2="55.67067388415222" y1="173.97424548756322" y2="178.32567169271397" /><path d="M 57.64086615596768 174.84453072859336 a86.0,86.0 0 0,1 -31.369924170532247,-30.572349798747897" fill="none" id="id80" stroke="none" /><text fill="#e1ed5e" style="font-size:6.75px; font-family:Arial;" text-anchor="middle"><textPath startOffset="22.145653131862474" xlink:href="#id80">August</textPath></text><path d="M 88.72937992617639 117.7192867562869 l -20.880315568427747 32.82732420180092 a59.90527975079051,59.90527975079051 0 0,0 -0.8629622775370168,-0.5593617222850467 l 21.440763478221776 -32.46404863781198" fill="#56ff2b" stroke="none" /><path d="M 87.54013794807813 116.9041958592261 l -14.222740157713272 19.295878580275403 a44.971175769631344,44.971175769631344 0 0,0 -0.6174906723019888,-0.4633765122911331 l 14.551883818926026 -19.048883040720256" fill="#ffe615" stroke="none" /><path d="M 86.96720088162412 116.46651593811092 l -18.78613848166165 23.735672276853908 a51.27046642333712,51.27046642333712 0 0,0 -0.6854354262799195,-0.5521382599831116 l 19.19082467829683 -23.409685723077388" fill="#c1ff1e" stroke="none" /><path d="M 86.40962598614128 116.0094264158162 l -19.36338514705274 22.810019014688734 a50.920522251517674,50.920522251517674 0 0,0 -0.6615315891145612,-0.5714152307871814 l 19.752096215930163 -22.47425965143683" fill="#c6ff1e" stroke="none" /><path d="M 85.86807049272751 115.53346607816431 l -14.834369025787515 16.30557015830425 a43.04382277602109,43.04382277602109 0 0,0 -0.5422911445415697,-0.5019365874509789 l 15.112089941643053 -16.048515824720894" fill="#ffcb12" stroke="none" /><path d="M 85.08716467003676 114.78537596483092 l -21.358221612220174 21.17567380646661 a51.07628287529204,51.07628287529204 0 0,0 -0.6119746152180172,-0.6279398672347442 l 21.718583028589002 -20.80591124716413" fill="#c4ff1e" stroke="none" /><path d="M 84.1078160697243 113.72728997021213 l -22.502954887169587 19.43751647212529 a50.73550109310639,50.73550109310639 0 0,0 -0.5636603918196463,-0.6639905242596468 l 22.833309842496345 -19.048359165416088" fill="#c8ff1d" stroke="none" /><path d="M 83.20337586046588 112.60449989151573 l -37.318538004789886 28.004526643289317 a67.65754806384116,67.65754806384116 0 0,0 -0.6891339471793119,-0.9349425513554396 l 37.79377397155303 -27.359777782665" fill="#36ff6b" stroke="none" /><path d="M 82.576782715395 111.72311816256416 l -12.471650654612047 8.39148315250735 a36.03193465757152,36.03193465757152 0 0,0 -0.3408888016602255,-0.5161490936842699 l 12.613863895192999 -8.17615418048402" fill="#ff6008" stroke="none" /><path d="M 81.99639281039703 110.81064883170644 l -54.01082156880893 32.43194649511935 a84.0,84.0 0 0,0 -0.7317051594809199,-1.2425953268257648 l 54.559600438419615 -31.50000000000003" fill="#4dd2ff" stroke="none" /><line stroke="#e1ed5e" stroke-width="0.3" x1="26.387840678322732" x2="22.057713659400548" y1="142.50000000000003" y2="145.00000000000006" /><path d="M 25.521815274538298 143.00000000000003 a86.0,86.0 0 0,1 -11.493303480769221,-40.785679425670985" fill="none" id="id81" stroke="none" /><text fill="#e1ed5e" style="font-size:6.75px; font-family:Arial;" text-anchor="middle"><textPath startOffset="21.40746469413373" xlink:href="#id81">September</textPath></text><path d="M 81.4637452351635 109.86951160357371 l -19.412481826071534 10.336053159995878 a42.99269073064545,42.99269073064545 0 0,0 -0.3412635541835281,-0.6544178624331921 l 19.58705344923001 -10.001289054458182" fill="#ffca12" stroke="none" /><path d="M 81.1358732173502 109.22738970284198 l -19.087854756352108 9.3368262659315 a42.24905936552915,42.24905936552915 0 0,0 -0.31308714137901794,-0.6542317097704419 l 19.245321155691038 -9.007782054095951" fill="#ffbf11" stroke="none" /><path d="M 80.68587082218212 108.24405325689762 l -28.789880854537433 12.288688184664979 a52.30286084239563,52.30286084239563 0 0,0 -0.34538357407833026,-0.8287948453126602 l 28.99659027315225 -11.792660829911037" fill="#b4ff20" stroke="none" /><path d="M 79.94057633289273 106.21446072829308 l -20.305797514937876 6.290787976135821 a42.257926194207,42.257926194207 0 0,0 -0.20872131494657917,-0.694765374528488 l 20.410795149888084 -5.941284998016609" fill="#ffbf11" stroke="none" /><path d="M 79.73907114497094 105.5222062557868 l -35.005836606132355 9.540996431042325 a57.282767388836234,57.282767388836234 0 0,0 -0.25043621975765645,-0.9509471178679122 l 35.164462306694745 -8.93866880880161" fill="#75ff27" stroke="none" /><path d="M 79.56144815229197 104.8234425847677 l -20.5509306103187 4.849963666752315 a42.11546581344943,42.11546581344943 0 0,0 -0.16001698725488975,-0.7050643709606438 l 20.631158459131257 -4.496464961852645" fill="#ffbd11" stroke="none" /><path d="M 79.407916724674 104.11899336999214 l -20.676614050567892 4.135901892462949 a42.0862052788125,42.0862052788125 0 0,0 -0.13562521690435725,-0.709648444605185 l 20.744565559754406 -3.78035088282445" fill="#ffbc11" stroke="none" /><path d="M 79.2786578344484 103.40968896794605 l -29.885418294839443 4.917634207680408 a51.287313397825045,51.287313397825045 0 0,0 -0.13549255331182733,-0.8699593880614649 l 29.965432340289535 -4.403886637687492" fill="#c1ff1e" stroke="none" /><path d="M 79.13060592940153 102.33845913500099 l -21.488757474009173 2.4078600962215835 a42.623239535734726,42.623239535734726 0 0,0 -0.07523531020335947,-0.7278333782459924 l 21.5269251766942 -2.03862219569266" fill="#ffc412" stroke="none" /><line stroke="#e1ed5e" stroke-width="0.3" x1="15.003131293944662" x2="10.003315487706104" y1="100.72959589197737" y2="100.7725132973878" /><path d="M 14.003168132696942 100.73817937305945 a86.0,86.0 0 0,1 10.791469493833604,-42.45332614584628" fill="none" id="id82" stroke="none" /><text fill="#e1ed5e" style="font-size:6.75px; font-family:Arial;" text-anchor="middle"><textPath startOffset="22.145653131862435" xlink:href="#id82">October</textPath></text><path d="M 79.00077361379809 99.81974689727619 l -22.111578324831278 -0.18980130628956696 a43.11239291779652,43.11239291779652 0 0,0 0.01270495202461762,-0.7399997612939876 l 22.105061941207996 0.569347983552607" fill="#ffcc13" stroke="none" /><path d="M 79.01933749520258 99.09900007780938 l -24.381700400066872 -1.0470551231788872 a45.404172570066706,45.404172570066706 0 0,0 0.04012520356857265,-0.7784182296959715 l 24.36013360704173 1.4654451462515707" fill="#ffed16" stroke="none" /><path d="M 79.13060592940154 97.66154086499901 l -16.980994202363203 -1.902755819339243 a38.087265545098845,38.087265545098845 0 0,0 0.07838343604443757,-0.6491272936803344 l 16.945828680059098 2.193976789943014" fill="#ff800b" stroke="none" /><path d="M 79.22317932658666 96.9465228501225 l -22.57656741480174 -3.317977943178754 a43.81907916342175,43.81907916342175 0 0,0 0.11576272037437005,-0.743279707375818 l 22.516283202289106 3.705045832486022" fill="#ffd614" stroke="none" /><path d="M 79.407916724674 95.88100663000787 l -44.32069304182744 -8.865379881766893 a66.1986591853777,66.1986591853777 0 0,0 0.23245907946130043,-1.112400846356373 l 44.16197625154177 9.624897179408675" fill="#34ff58" stroke="none" /><path d="M 79.56144815229197 95.17655741523228 l -27.75822556904795 -6.550865652565707 a49.520745564239945,49.520745564239945 0 0,0 0.20235703169640398,-0.8256857438277148 l 27.64168101083525 7.02640722100154" fill="#d8ff1c" stroke="none" /><path d="M 79.73907114497095 94.47779374421319 l -23.24787457662205 -6.33631159456462 a45.09590249303321,45.09590249303321 0 0,0 0.20997834985840008,-0.7451390871202322 l 23.135677734689068 6.734458605587866" fill="#ffe815" stroke="none" /><path d="M 79.94057633289273 93.78553927170692 l -24.614328406927577 -7.6255818600105805 a46.768481942633024,46.768481942633024 0 0,0 0.24416551478318033,-0.7648449974450076 l 24.47979817636714 8.04699589114698" fill="#feff18" stroke="none" /><path d="M 80.28708602549916 92.7611449362534 l -23.736899449530647 -8.716518268184135 a46.28671758446944,46.28671758446944 0 0,0 0.28029762969958577,-0.7435227641398567 l 23.583771136016626 9.122709312518138" fill="#fff917" stroke="none" /><path d="M 80.5471966667186 92.08871423366112 l -24.981256565796482 -10.15965956722122 a47.96816386274712,47.96816386274712 0 0,0 0.3167592672762984,-0.760106929300791 l 24.803171453983705 10.586999005963277" fill="#eeff19" stroke="none" /><path d="M 80.83023694016515 91.42560881287825 l -42.15083338443012 -18.853531635899525 a67.17519258376572,67.17519258376572 0 0,0 0.47987249828185286,-1.048608011943319 l 41.82097642129322 19.574328630057515" fill="#35ff65" stroke="none" /><path d="M 81.29705330413844 90.45014215332179 l -21.50890638879228 -10.982600859143016 a45.15058126987999,45.15058126987999 0 0,0 0.35839226565620025,-0.687264425187302 l 21.31720605416114 11.350211527434805" fill="#ffe915" stroke="none" /><path d="M 81.63589988554816 89.8137432299009 l -15.127547438923289 -8.39099555950811 a38.298887189543706,38.298887189543706 0 0,0 0.32383831055587975,-0.5721912651646401 l 14.98127576334604 8.649443594771855" fill="#ff830c" stroke="none" /><line stroke="#e1ed5e" stroke-width="0.3" x1="26.387840678322718" x2="22.05771365940052" y1="57.49999999999999" y2="54.99999999999999" /><path d="M 25.521815274538284 56.99999999999999 a86.0,86.0 0 0,1 29.574782752854787,-30.34633250058573" fill="none" id="id83" stroke="none" /><text fill="#e1ed5e" style="font-size:6.75px; font-family:Arial;" text-anchor="middle"><textPath startOffset="21.40746469413373" xlink:href="#id83">November</textPath></text><path d="M 81.99639281039701 89.18935116829357 l -27.652058825931267 -16.604266816789142 a53.25427155952973,53.25427155952973 0 0,0 0.47734094938550253,-0.779700567256178 l 27.36294991209037 17.07650450016986" fill="#a7ff21" stroke="none" /><path d="M 83.42222388311158 87.10902102172516 l -49.149092285707205 -38.218631436992936 a83.25991536635485,83.25991536635485 0 0,0 0.8870494309236219,-1.1207579783533306 l 48.48577642414202 39.05670935926095" fill="#4cdaff" stroke="none" /><path d="M 84.58840730492382 85.73525988315684 l -12.074176051653948 -11.175677096428982 a37.45240061176426,37.45240061176426 0 0,0 0.44076868208426806,-0.4680810660065212 l 11.880551535833408 11.381299622380014" fill="#ff760a" stroke="none" /><path d="M 85.08716467003674 85.21462403516908 l -21.559504380755158 -21.37523621979602 a51.35972583202754,51.35972583202754 0 0,0 0.6261192758527722,-0.620767861206827 l 21.18939318477241 21.74218409123152" fill="#c0ff1e" stroke="none" /><path d="M 86.68645165197937 83.75963576809568 l -13.406613395069012 -16.35388845713836 a42.14679527477786,42.14679527477786 0 0,0 0.5634609669232886,-0.4538842696443488 l 13.123901657790478 16.581621020576108" fill="#ffbd11" stroke="none" /><path d="M 87.25179093698888 83.31218511350988 l -24.31892795444412 -31.834257340442168 a61.06033196655939,61.06033196655939 0 0,0 0.8384078199368877,-0.6291568584051019 l 23.76886714559648 32.24703322611127" fill="#48ff2c" stroke="none" /><path d="M 88.12776184653039 82.6780497279521 l -11.889226024383634 -17.346736083400145 a42.030048697186075,42.030048697186075 0 0,0 0.5986354084186978,-0.4027886190335361 l 11.589694327867948 17.54827437649079" fill="#ffbc11" stroke="none" /><line stroke="#e1ed5e" stroke-width="0.3" x1="56.869717070023135" x2="54.33264160355391" y1="26.7553504044142" y2="22.446841604673864" /><path d="M 56.362301976729285 25.89364864446614 a86.0,86.0 0 0,1 42.16139366436587,-11.88097634709845" fill="none" id="id84" stroke="none" /><text fill="#e1ed5e" style="font-size:6.75px; font-family:Arial;" text-anchor="middle"><textPath startOffset="22.145653131862474" xlink:href="#id84">December</textPath></text><path d="M 89.34428304082924 81.90426304109057 l -19.796765799770355 -33.61923631440538 a60.01493286544,60.01493286544 0 0,0 0.892243527687753,-0.5151370408932228 l 19.216729804222204 33.954120252574775" fill="#54ff2b" stroke="none" /><path d="M 90.93487009805054 81.0573650232925 l -14.228861018582961 -29.732846999948286 a53.96214004897867,53.96214004897867 0 0,0 0.8390117976017641,-0.3926998854668119 l 13.716360507109675 29.97272311698564" fill="#9eff22" stroke="none" /><path d="M 92.25597844496254 80.48000691201159 l -5.618206729841096 -14.161551043469109 a36.23528059525038,36.23528059525038 0 0,0 0.580157448212055,-0.22441736416989297 l 5.374277019135511 14.255908295777042" fill="#ff6309" stroke="none" /><path d="M 92.592206182469 80.34994680014964 l -6.401131236868178 -16.979761105932983 a39.146260450190944,39.146260450190944 0 0,0 0.6308342480246483,-0.23165107383946082 l 6.108707837189402 17.087143028781167" fill="#ff900d" stroke="none" /><path d="M 93.27111125876988 80.10723608172694 l -5.22772282738103 -15.454833633680549 a37.31505343554425,37.31505343554425 0 0,0 0.608550349768224,-0.20004258731464955 l 4.961649739965045 15.542297142397228" fill="#ff740a" stroke="none" /><path d="M 93.95794788825049 79.88797359093562 l -11.93602215871491 -39.731135785543906 a62.485320003377836,62.485320003377836 0 0,0 1.0299365662999738,-0.2997995239935791 l 11.252225580033311 39.93017900384001" fill="#38ff2e" stroke="none" /><path d="M 95.00130118170881 79.60360301121753 l -6.130674725285137 -25.015244977043228 a46.75553637276336,46.75553637276336 0 0,0 0.7811911594212843,-0.18435898655017455 l 5.700351412123946 25.116800107239634" fill="#feff18" stroke="none" /><path d="M 95.35216902796891 79.52079915486377 l -3.2855917787047573 -14.476923609340972 a35.845081021233476,35.845081021233476 0 0,0 0.6012373673814849,-0.13103688586090345 l 3.036591994704154 14.53119195333559" fill="#ff5d08" stroke="none" /><path d="M 96.41257539226777 79.30868818359171 l -3.555846102090821 -20.509175387529982 a41.8151463261304,41.8151463261304 0 0,0 0.7083137267301064,-0.11655275418845545 l 3.203254872307642 20.567194140214106" fill="#ffb811" stroke="none" /><path d="M 97.12497278360702 79.19773525538626 l -2.6775813631137093 -19.3736449078267 a40.55780046351464,40.55780046351464 0 0,0 0.690491102906396,-0.08939789738471356 l 2.344612438316519 19.41675440141181" fill="#ffa60f" stroke="none" /></svg>